# Blender 4.1.0
# www.blender.org
mtllib cone.mtl
o Cylinder
v 0.000000 0.061466 -1.555949
v 0.000000 0.061466 2.184659
v 0.043463 0.043463 -1.555949
v 0.043463 0.043463 2.184659
v 0.061466 -0.000000 -1.555949
v 0.061466 0.000000 2.184659
v 0.043463 -0.043463 -1.555949
v 0.043463 -0.043463 2.184659
v 0.000000 -0.061466 -1.555949
v 0.000000 -0.061466 2.184659
v -0.043463 -0.043463 -1.555949
v -0.043463 -0.043463 2.184659
v -0.061466 -0.000000 -1.555949
v -0.061466 0.000000 2.184659
v -0.043463 0.043463 -1.555949
v -0.043463 0.043463 2.184659
v 0.000000 0.061466 0.175735
v 0.043463 0.043463 0.175735
v 0.061466 0.000000 0.175735
v 0.043463 -0.043463 0.175735
v 0.000000 -0.061466 0.175735
v -0.043463 -0.043463 0.175735
v -0.061466 0.000000 0.175735
v -0.043463 0.043463 0.175735
v 0.000000 0.743498 0.251612
v 0.525732 0.525732 0.251612
v 0.743498 0.000000 0.251612
v 0.525732 -0.525732 0.251612
v 0.000000 -0.743498 0.251612
v -0.525732 -0.525732 0.251612
v -0.743498 0.000000 0.251612
v -0.525732 0.525732 0.251612
v 0.000000 0.322192 0.640734
v 0.000000 0.456603 0.769251
v 0.000000 0.115106 1.199908
v 0.000000 0.298548 1.277422
v 0.000000 0.088925 1.738752
v 0.000000 0.181621 1.785594
v 0.128425 0.128425 1.785594
v 0.062879 0.062879 1.738752
v 0.211106 0.211106 1.277422
v 0.081392 0.081392 1.199908
v 0.322867 0.322867 0.769250
v 0.227824 0.227824 0.640734
v 0.181621 0.000000 1.785594
v 0.088924 0.000000 1.738752
v 0.298548 0.000000 1.277422
v 0.115106 0.000000 1.199908
v 0.456603 0.000000 0.769250
v 0.322192 0.000000 0.640734
v 0.128425 -0.128425 1.785594
v 0.062879 -0.062879 1.738752
v 0.211106 -0.211106 1.277422
v 0.081392 -0.081392 1.199908
v 0.322867 -0.322867 0.769250
v 0.227824 -0.227824 0.640734
v 0.000000 -0.181620 1.785594
v 0.000000 -0.088924 1.738752
v 0.000000 -0.298548 1.277422
v 0.000000 -0.115106 1.199907
v 0.000000 -0.456603 0.769250
v 0.000000 -0.322192 0.640734
v -0.128425 -0.128425 1.785594
v -0.062879 -0.062879 1.738752
v -0.211106 -0.211106 1.277422
v -0.081392 -0.081392 1.199908
v -0.322867 -0.322867 0.769250
v -0.227824 -0.227824 0.640734
v -0.181621 0.000000 1.785594
v -0.088924 0.000000 1.738752
v -0.298548 0.000000 1.277422
v -0.115106 0.000000 1.199908
v -0.456603 0.000000 0.769250
v -0.322192 0.000000 0.640734
v -0.128425 0.128425 1.785594
v -0.062879 0.062879 1.738752
v -0.211106 0.211106 1.277422
v -0.081392 0.081392 1.199908
v -0.322867 0.322867 0.769250
v -0.227824 0.227824 0.640734
vn 0.3687 0.8901 0.2680
vn 0.8901 0.3687 0.2680
vn 0.8901 -0.3687 0.2680
vn 0.3687 -0.8901 0.2680
vn -0.3687 -0.8901 0.2680
vn -0.8901 -0.3687 0.2680
vn -0.0000 -0.0000 1.0000
vn -0.8901 0.3687 0.2680
vn -0.3687 0.8901 0.2680
vn -0.0000 -0.0000 -1.0000
vn -0.3827 0.9239 -0.0000
vn -0.9239 0.3827 -0.0000
vn -0.9239 -0.3827 -0.0000
vn -0.3827 -0.9239 -0.0000
vn 0.3827 -0.9239 -0.0000
vn 0.9239 -0.3827 -0.0000
vn 0.9239 0.3827 -0.0000
vn 0.3827 0.9239 -0.0000
vn -0.0458 0.1105 -0.9928
vn -0.1105 0.0458 -0.9928
vn -0.1105 -0.0458 -0.9928
vn -0.0458 -0.1105 -0.9928
vn 0.0458 -0.1105 -0.9928
vn 0.1105 -0.0458 -0.9928
vn 0.1105 0.0458 -0.9928
vn 0.0458 0.1105 -0.9928
vn -0.2706 0.6532 0.7072
vn -0.2752 0.6644 -0.6949
vn -0.3087 0.7453 0.5910
vn -0.1592 0.3843 -0.9094
vn -0.3528 0.8519 0.3871
vn -0.1836 0.4433 -0.8773
vn -0.6532 0.2706 0.7072
vn -0.6644 0.2752 -0.6949
vn -0.7453 0.3087 0.5910
vn -0.3843 0.1592 -0.9094
vn -0.8519 0.3528 0.3871
vn -0.4433 0.1836 -0.8773
vn -0.6532 -0.2706 0.7072
vn -0.6644 -0.2752 -0.6949
vn -0.7453 -0.3087 0.5910
vn -0.3843 -0.1592 -0.9094
vn -0.8519 -0.3528 0.3871
vn -0.4433 -0.1836 -0.8773
vn -0.2706 -0.6532 0.7072
vn -0.2752 -0.6644 -0.6949
vn -0.3087 -0.7453 0.5910
vn -0.1592 -0.3843 -0.9094
vn -0.3528 -0.8519 0.3871
vn -0.1836 -0.4433 -0.8773
vn 0.2706 -0.6532 0.7072
vn 0.2752 -0.6644 -0.6949
vn 0.3087 -0.7453 0.5910
vn 0.1592 -0.3843 -0.9094
vn 0.3528 -0.8519 0.3871
vn 0.1836 -0.4433 -0.8773
vn 0.6532 -0.2706 0.7072
vn 0.6644 -0.2752 -0.6949
vn 0.7453 -0.3087 0.5910
vn 0.3843 -0.1592 -0.9094
vn 0.8519 -0.3528 0.3871
vn 0.4433 -0.1836 -0.8773
vn 0.6532 0.2706 0.7072
vn 0.6644 0.2752 -0.6949
vn 0.7453 0.3087 0.5910
vn 0.3843 0.1592 -0.9094
vn 0.8519 0.3528 0.3871
vn 0.4433 0.1836 -0.8773
vn 0.2706 0.6532 0.7072
vn 0.2752 0.6644 -0.6949
vn 0.3087 0.7453 0.5910
vn 0.1592 0.3843 -0.9094
vn 0.3528 0.8519 0.3871
vn 0.1836 0.4433 -0.8773
vn -0.3529 0.8519 0.3871
vn 0.3529 0.8519 0.3871
vt 1.000000 0.934414
vt 0.875000 1.000000
vt 0.875000 0.934414
vt 0.750000 1.000000
vt 0.750000 0.934414
vt 0.625000 0.934414
vt 0.625000 1.000000
vt 0.500000 0.934414
vt 0.375000 1.000000
vt 0.375000 0.934414
vt 0.250000 0.934414
vt 0.685470 0.581064
vt 0.755765 0.750769
vt 0.275765 0.750769
vt 0.250000 1.000000
vt 0.125000 0.934414
vt 0.125000 1.000000
vt 0.000000 0.934414
vt 0.580294 0.419706
vt 0.919706 0.419706
vt 0.919706 0.080294
vt 0.122539 0.236783
vt -0.002461 0.201015
vt 0.122539 0.201015
vt 0.247539 0.236783
vt 0.247539 0.201015
vt 0.372539 0.236783
vt 0.372539 0.201015
vt 0.497539 0.236783
vt 0.497539 0.201015
vt 0.622539 0.236783
vt 0.622539 0.201015
vt 0.747539 0.236783
vt 0.747539 0.201015
vt 0.872539 0.201015
vt 0.997539 0.201015
vt 0.872539 0.236783
vt 0.125000 0.535768
vt 0.000000 0.540896
vt 0.000000 0.535768
vt 0.250000 0.540896
vt 0.250000 0.535768
vt 0.375000 0.540896
vt 0.375000 0.535768
vt 0.500000 0.540896
vt 0.500000 0.535768
vt 0.625000 0.540896
vt 0.625000 0.535768
vt 0.750000 0.535768
vt 0.875000 0.535768
vt 0.750000 0.540896
vt 1.000000 0.540896
vt 1.000000 0.535768
vt 0.125000 0.606482
vt 0.125000 0.540896
vt 0.125000 0.672069
vt 0.000000 0.606482
vt 0.125000 0.737655
vt 0.000000 0.672069
vt 0.125000 0.803241
vt 0.000000 0.737655
vt 0.125000 0.868827
vt 0.000000 0.803241
vt 0.000000 0.868827
vt 0.250000 0.606482
vt 0.250000 0.672069
vt 0.250000 0.737655
vt 0.250000 0.803241
vt 0.250000 0.868827
vt 0.375000 0.606482
vt 0.375000 0.672069
vt 0.375000 0.737655
vt 0.375000 0.803241
vt 0.375000 0.868827
vt 0.500000 0.606482
vt 0.500000 0.672069
vt 0.500000 0.737655
vt 0.500000 0.868827
vt 0.500000 0.803241
vt 0.625000 0.672069
vt 0.625000 0.606482
vt 0.625000 0.737655
vt 0.625000 0.803241
vt 0.625000 0.868827
vt 0.750000 0.606482
vt 0.750000 0.737655
vt 0.750000 0.672069
vt 0.750000 0.868827
vt 0.750000 0.803241
vt 0.875000 0.540896
vt 0.875000 0.672069
vt 0.875000 0.606482
vt 0.875000 0.803241
vt 0.875000 0.737655
vt 0.875000 0.868827
vt 1.000000 0.606482
vt 1.000000 0.737655
vt 1.000000 0.672069
vt 1.000000 0.868827
vt 1.000000 0.803241
vt 1.000000 1.000000
vt 0.500000 1.000000
vt 0.685470 0.920475
vt 0.515765 0.990769
vt 0.346059 0.920475
vt 0.346059 0.581064
vt 0.515765 0.510769
vt 0.000000 1.000000
vt 0.750000 0.490000
vt 0.990000 0.250000
vt 0.750000 0.010000
vt 0.580294 0.080294
vt 0.510000 0.250000
vt -0.002461 0.236783
vt 0.997539 0.236783
s 0
f 38/1/1 4/2/1 39/3/1
f 39/3/2 6/4/2 45/5/2
f 6/4/3 51/6/3 45/5/3
f 8/7/4 57/8/4 51/6/4
f 57/8/5 12/9/5 63/10/5
f 12/9/6 69/11/6 63/10/6
f 8/12/7 6/13/7 14/14/7
f 14/15/8 75/16/8 69/11/8
f 16/17/9 38/18/9 75/16/9
f 15/19/10 3/20/10 7/21/10
f 24/22/11 1/23/11 15/24/11
f 23/25/12 15/24/12 13/26/12
f 22/27/13 13/26/13 11/28/13
f 21/29/14 11/28/14 9/30/14
f 20/31/15 9/30/15 7/32/15
f 19/33/16 7/32/16 5/34/16
f 3/35/17 19/33/17 5/34/17
f 1/36/18 18/37/18 3/35/18
f 24/38/19 25/39/19 17/40/19
f 31/41/20 24/38/20 23/42/20
f 30/43/21 23/42/21 22/44/21
f 29/45/22 22/44/22 21/46/22
f 28/47/23 21/46/23 20/48/23
f 19/49/24 28/47/24 20/48/24
f 18/50/25 27/51/25 19/49/25
f 25/52/26 18/50/26 17/53/26
f 80/54/27 25/39/27 32/55/27
f 79/56/28 33/57/28 80/54/28
f 78/58/29 34/59/29 79/56/29
f 77/60/30 35/61/30 78/58/30
f 76/62/31 36/63/31 77/60/31
f 75/16/32 37/64/32 76/62/32
f 74/65/33 32/55/33 31/41/33
f 73/66/34 80/54/34 74/65/34
f 72/67/35 79/56/35 73/66/35
f 71/68/36 78/58/36 72/67/36
f 70/69/37 77/60/37 71/68/37
f 70/69/38 75/16/38 76/62/38
f 68/70/39 31/41/39 30/43/39
f 67/71/40 74/65/40 68/70/40
f 66/72/41 73/66/41 67/71/41
f 65/73/42 72/67/42 66/72/42
f 64/74/43 71/68/43 65/73/43
f 64/74/44 69/11/44 70/69/44
f 62/75/45 30/43/45 29/45/45
f 61/76/46 68/70/46 62/75/46
f 60/77/47 67/71/47 61/76/47
f 60/77/48 65/73/48 66/72/48
f 58/78/49 65/73/49 59/79/49
f 57/8/50 64/74/50 58/78/50
f 28/47/51 62/75/51 29/45/51
f 55/80/52 62/75/52 56/81/52
f 55/80/53 60/77/53 61/76/53
f 54/82/54 59/79/54 60/77/54
f 53/83/55 58/78/55 59/79/55
f 51/6/56 58/78/56 52/84/56
f 50/85/57 28/47/57 27/51/57
f 50/85/58 55/80/58 56/81/58
f 48/86/59 55/80/59 49/87/59
f 48/86/60 53/83/60 54/82/60
f 46/88/61 53/83/61 47/89/61
f 46/88/62 51/6/62 52/84/62
f 26/90/63 50/85/63 27/51/63
f 43/91/64 50/85/64 44/92/64
f 43/91/65 48/86/65 49/87/65
f 41/93/66 48/86/66 42/94/66
f 41/93/67 46/88/67 47/89/67
f 39/3/68 46/88/68 40/95/68
f 25/52/69 44/92/69 26/90/69
f 33/96/70 43/91/70 44/92/70
f 35/97/71 43/91/71 34/98/71
f 35/97/72 41/93/72 42/94/72
f 37/99/73 41/93/73 36/100/73
f 37/99/74 39/3/74 40/95/74
f 38/1/1 2/101/1 4/2/1
f 39/3/2 4/2/2 6/4/2
f 6/4/3 8/7/3 51/6/3
f 8/7/4 10/102/4 57/8/4
f 57/8/5 10/102/5 12/9/5
f 12/9/6 14/15/6 69/11/6
f 6/13/7 4/103/7 14/14/7
f 4/103/7 2/104/7 14/14/7
f 2/104/7 16/105/7 14/14/7
f 14/14/7 12/106/7 10/107/7
f 10/107/7 8/12/7 14/14/7
f 14/15/8 16/17/8 75/16/8
f 16/17/9 2/108/9 38/18/9
f 15/19/10 1/109/10 3/20/10
f 3/20/10 5/110/10 7/21/10
f 7/21/10 9/111/10 15/19/10
f 9/111/10 11/112/10 15/19/10
f 11/112/10 13/113/10 15/19/10
f 24/22/11 17/114/11 1/23/11
f 23/25/12 24/22/12 15/24/12
f 22/27/13 23/25/13 13/26/13
f 21/29/14 22/27/14 11/28/14
f 20/31/15 21/29/15 9/30/15
f 19/33/16 20/31/16 7/32/16
f 3/35/17 18/37/17 19/33/17
f 1/36/18 17/115/18 18/37/18
f 24/38/19 32/55/19 25/39/19
f 31/41/20 32/55/20 24/38/20
f 30/43/21 31/41/21 23/42/21
f 29/45/22 30/43/22 22/44/22
f 28/47/23 29/45/23 21/46/23
f 19/49/24 27/51/24 28/47/24
f 18/50/25 26/90/25 27/51/25
f 25/52/26 26/90/26 18/50/26
f 80/54/27 33/57/27 25/39/27
f 79/56/28 34/59/28 33/57/28
f 78/58/29 35/61/29 34/59/29
f 77/60/30 36/63/30 35/61/30
f 76/62/75 37/64/75 36/63/75
f 75/16/32 38/18/32 37/64/32
f 74/65/33 80/54/33 32/55/33
f 73/66/34 79/56/34 80/54/34
f 72/67/35 78/58/35 79/56/35
f 71/68/36 77/60/36 78/58/36
f 70/69/37 76/62/37 77/60/37
f 70/69/38 69/11/38 75/16/38
f 68/70/39 74/65/39 31/41/39
f 67/71/40 73/66/40 74/65/40
f 66/72/41 72/67/41 73/66/41
f 65/73/42 71/68/42 72/67/42
f 64/74/43 70/69/43 71/68/43
f 64/74/44 63/10/44 69/11/44
f 62/75/45 68/70/45 30/43/45
f 61/76/46 67/71/46 68/70/46
f 60/77/47 66/72/47 67/71/47
f 60/77/48 59/79/48 65/73/48
f 58/78/49 64/74/49 65/73/49
f 57/8/50 63/10/50 64/74/50
f 28/47/51 56/81/51 62/75/51
f 55/80/52 61/76/52 62/75/52
f 55/80/53 54/82/53 60/77/53
f 54/82/54 53/83/54 59/79/54
f 53/83/55 52/84/55 58/78/55
f 51/6/56 57/8/56 58/78/56
f 50/85/57 56/81/57 28/47/57
f 50/85/58 49/87/58 55/80/58
f 48/86/59 54/82/59 55/80/59
f 48/86/60 47/89/60 53/83/60
f 46/88/61 52/84/61 53/83/61
f 46/88/62 45/5/62 51/6/62
f 26/90/63 44/92/63 50/85/63
f 43/91/64 49/87/64 50/85/64
f 43/91/65 42/94/65 48/86/65
f 41/93/66 47/89/66 48/86/66
f 41/93/67 40/95/67 46/88/67
f 39/3/68 45/5/68 46/88/68
f 25/52/69 33/96/69 44/92/69
f 33/96/70 34/98/70 43/91/70
f 35/97/71 42/94/71 43/91/71
f 35/97/72 36/100/72 41/93/72
f 37/99/76 40/95/76 41/93/76
f 37/99/74 38/1/74 39/3/74
